<svg width="24" height="24" viewBox="0 0 24 24" fill="none" xmlns="http://www.w3.org/2000/svg">
<path fill-rule="evenodd" clip-rule="evenodd" d="M5.51942 8.7298C5.51942 5.01303 8.53246 2 12.2492 2C15.966 2 18.979 5.01303 18.979 8.7298V9.95316C18.979 10.9651 19.381 11.9356 20.0966 12.6512L20.4269 12.9815C22.4444 14.999 21.3756 18.4518 18.5711 18.9768C17.5094 19.1755 16.441 19.3256 15.3691 19.4272C14.9661 20.9097 13.6105 22 12.0003 22C10.3901 22 9.03451 20.9098 8.63149 19.4272C7.55944 19.3256 6.49085 19.1755 5.42903 18.9768C2.6245 18.4518 1.55571 14.999 3.57324 12.9815L4.2789 12.2758C5.07319 11.4815 5.51942 10.4042 5.51942 9.28094V8.7298ZM10.3004 19.5459C10.6501 20.1181 11.2806 20.5 12.0003 20.5C12.72 20.5 13.3504 20.1181 13.7001 19.5459C12.5675 19.5999 11.433 19.5999 10.3004 19.5459ZM12.2492 3.5C9.36088 3.5 7.01942 5.84146 7.01942 8.7298V9.28094C7.01942 10.8021 6.41516 12.2609 5.33956 13.3365L4.6339 14.0421C3.46947 15.2066 4.08633 17.1994 5.70498 17.5024C9.86558 18.2811 14.1345 18.2811 18.2951 17.5024C19.9138 17.1994 20.5307 15.2066 19.3662 14.0421L19.0359 13.7118C18.039 12.715 17.479 11.3629 17.479 9.95316V8.7298C17.479 5.84146 15.1376 3.5 12.2492 3.5Z" fill="white"/>
</svg>
